<?xml version="1.0" encoding="UTF-8" standalone="no"?>
<!-- Created with Inkscape (http://www.inkscape.org/) -->

<svg
   width="1in"
   height="1in"
   viewBox="0 0 25.4 25.4"
   version="1.1"
   id="svg1"
   xml:space="preserve"
   sodipodi:docname="icon.svg"
   inkscape:version="1.3.2 (091e20e, 2023-11-25, custom)"
   xmlns:inkscape="http://www.inkscape.org/namespaces/inkscape"
   xmlns:sodipodi="http://sodipodi.sourceforge.net/DTD/sodipodi-0.dtd"
   xmlns="http://www.w3.org/2000/svg"
   xmlns:svg="http://www.w3.org/2000/svg"><sodipodi:namedview
     id="namedview1"
     pagecolor="#ffffff"
     bordercolor="#999999"
     borderopacity="1"
     inkscape:showpageshadow="2"
     inkscape:pageopacity="0"
     inkscape:pagecheckerboard="0"
     inkscape:deskcolor="#d1d1d1"
     inkscape:document-units="mm"
     inkscape:zoom="6.0472361"
     inkscape:cx="30.179076"
     inkscape:cy="57.629633"
     inkscape:window-width="1920"
     inkscape:window-height="1017"
     inkscape:window-x="-8"
     inkscape:window-y="-8"
     inkscape:window-maximized="1"
     inkscape:current-layer="layer1" /><defs
     id="defs1" /><g
     inkscape:label="Layer 1"
     inkscape:groupmode="layer"
     id="layer1"><rect
       style="fill:#000000;fill-opacity:1;stroke-width:0.219875"
       id="rect2"
       width="25.4"
       height="25.4"
       x="4.4408921e-16"
       y="0" /><path
       id="rect3"
       style="fill:#ff0000;fill-opacity:1;stroke-width:0.743953"
       d="M -0.27208885,-3.6586914 -13.956599,12.979219 17.948184,36.866829 31.632695,20.228918 30.107556,19.087024 c -0.110717,0.239149 -0.222583,0.471284 -0.32976,0.691489 -0.334903,0.68809 -0.877678,1.714704 -1.502181,2.159861 -0.23613,0.168315 -0.547626,0.05701 -0.795181,0 -0.11832,-0.02726 -0.233222,-0.06957 -0.35324,-0.088 -0.07277,-0.01117 -0.149284,0.01782 -0.220709,0 -0.0515,-0.01286 -0.08216,-0.07124 -0.13253,-0.088 -0.04191,-0.01394 -0.09152,0.01637 -0.13253,0 -0.03867,-0.01544 -0.05144,-0.06993 -0.0887,-0.08852 -0.12495,-0.06235 -0.270749,-0.07384 -0.397591,-0.132258 -0.23815,-0.109689 -0.466063,-0.218425 -0.662649,-0.396773 -0.06977,-0.0633 -0.10969,-0.153723 -0.17636,-0.220256 -0.03754,-0.03747 -0.09499,-0.05053 -0.132529,-0.088 -0.06255,-0.06242 -0.285411,-0.345219 -0.309411,-0.441033 -0.01164,-0.04647 0.03088,-0.218306 0,-0.264516 -0.01987,-0.02975 -0.256175,-0.347173 -0.265061,-0.352513 -0.05206,-0.03118 -0.119278,-0.0251 -0.17688,-0.04426 -0.119359,-0.03971 -0.236423,-0.08563 -0.35324,-0.132257 -0.04929,-0.01968 -0.08216,-0.07124 -0.13253,-0.088 -0.135728,-0.04515 -0.653601,10e-7 -0.79518,0 -0.08476,10e-7 -0.46863,-0.01971 -0.53012,-0.04426 -0.06114,-0.02442 -0.112988,-0.07206 -0.176881,-0.088 -0.72282,-0.180331 0.380947,0.199966 -0.353239,-0.04426 -0.07523,-0.02503 -0.143782,-0.0688 -0.22071,-0.088 -0.08572,-0.02138 -0.181246,0.02788 -0.26506,0 -0.05037,-0.01676 -0.08324,-0.06884 -0.13253,-0.08852 -0.09023,-0.03601 -0.273774,0.05321 -0.353761,-1e-6 -0.03466,-0.02306 -0.05092,-0.06941 -0.08818,-0.088 -0.102924,-0.05134 -0.283663,-0.02152 -0.39759,-0.04426 -0.230255,-0.04596 -0.469858,-0.116829 -0.707,-0.175996 -0.04971,-0.0124 -0.338691,-0.132948 -0.35324,-0.176517 -0.0093,-0.02789 0.0093,-0.06012 0,-0.088 -0.0066,-0.01971 -0.03506,-0.02567 -0.04435,-0.04426 -0.06654,-0.1328 -0.06105,-0.305643 -0.08818,-0.441032 -0.0386,-0.192605 -0.06069,-0.09317 -0.13253,-0.308254 -0.0093,-0.02789 0.0072,-0.06 1e-6,-0.08852 -0.0272,-0.108575 -0.101725,-0.200644 -0.13253,-0.308254 -0.0027,-0.0095 -0.0389,-0.281479 -0.04435,-0.308775 -0.02691,-0.134272 0,-0.304523 0,-0.441032 v -0.881545 c 0,-0.08562 0.02631,-0.229989 0,-0.308775 -0.0066,-0.01972 -0.03878,-0.02358 -0.04383,-0.04374 -0.01071,-0.04277 0.01397,-0.09043 0,-0.132258 -0.0047,-0.01394 -0.03779,0.01314 -0.04435,0 -0.01317,-0.02629 0.0072,-0.06 -1e-6,-0.08852 -0.0226,-0.09017 -0.06797,-0.17379 -0.08818,-0.264515 -0.02745,-0.123244 -1.21e-4,-0.57289 -0.0887,-0.661288 -0.01041,-0.01039 -0.03342,0.01039 -0.04383,0 -0.0081,-0.0081 -0.03617,-0.124096 -0.04435,-0.132258 -0.09139,-0.09121 0.0037,0.139736 -0.08818,-0.04374 -0.0066,-0.01314 0.01041,-0.03387 0,-0.04426 -0.09282,-0.09263 -0.213531,-0.168833 -0.309411,-0.264516 -0.09123,-0.09105 -0.152273,-0.263241 -0.220709,-0.308774 -0.02451,-0.0163 -0.06236,0.01314 -0.0887,0 -0.02945,-0.0147 -0.01438,-0.07331 -0.04383,-0.088 -0.270361,-0.1349 -0.636579,-0.08936 -0.927711,-0.176517 -0.414429,-0.124096 0.05594,-0.06411 -0.353761,-0.132257 -0.156497,-0.02603 -0.331447,-0.01294 -0.485769,-0.04374 -0.236921,-0.04729 -0.474333,-0.130076 -0.707001,-0.176517 -0.04332,-0.0087 -0.09062,0.01394 -0.13253,0 -0.01398,-0.0046 0.01317,-0.03771 -1e-6,-0.04426 -0.08246,-0.04115 -0.226427,0.04115 -0.308888,0 -0.01317,-0.0066 0.01317,-0.03719 -10e-7,-0.04374 -0.130335,-0.06504 -0.599182,0.01337 -0.751351,0.04374 -0.191323,0.03818 -0.353488,-0.03764 -0.53012,-0.088 -0.02832,-0.0081 -0.06184,0.01314 -0.08818,0 -0.03726,-0.01859 -0.05092,-0.06941 -0.08818,-0.088 -0.193075,-0.09634 -0.200327,-0.02938 -0.353761,-0.220777 -0.168808,-0.210577 -0.02366,-0.04722 -0.13253,-0.264515 -0.102471,-0.204521 -0.203146,-0.356536 -0.26506,-0.572769 -0.05729,-0.200105 -1e-6,-0.839407 -1e-6,-1.102321 1e-6,-0.190892 -0.01322,-0.345804 -0.04383,-0.529031 -0.01211,-0.072477 0.02734,-0.1520344 0,-0.2202556 -0.01972,-0.049195 -0.07191,-0.081992 -0.0887,-0.1322581 -0.03811,-0.1140484 -0.0043,-0.2784036 -0.04383,-0.3967726 -0.02173,-0.065047 -0.07017,-0.1210542 -0.0887,-0.1765173 -0.0093,-0.027882 0.01317,-0.061712 0,-0.087998 -0.0066,-0.013143 -0.03727,0.013143 -0.04383,0 -0.01317,-0.026289 0.01093,-0.06123 0,-0.088519 -0.01972,-0.049195 -0.07411,-0.081312 -0.0887,-0.1322581 -0.02713,-0.09477 0.0067,-0.2959562 -0.04383,-0.3967726 -0.01863,-0.037177 -0.07007,-0.050821 -0.0887,-0.087998 -0.04276,-0.085383 -0.0047,-0.14208 -0.04383,-0.2202556 -0.0066,-0.013144 -0.03118,0.00657 -0.04435,0 -0.0596,-0.029741 -0.07655,-0.1300987 -0.08818,-0.1765172 -0.05285,-0.210947 0.07514,-0.8880516 -0.176881,-1.0138023 -0.07358,-0.03671 -0.561354,-0.044259 -0.618299,-0.044259 -0.707656,-1e-7 0.0829,0.021211 -0.441941,-0.044259 -0.381258,-0.04756 -0.931169,0.077569 -1.2809501,1e-7 C 9.6132922,6.7144858 9.5645857,6.6566845 9.500698,6.6407444 9.3571261,6.6049204 9.1953182,6.7047042 9.0587571,6.5964848 8.9818249,6.5772915 8.9267611,6.4983693 8.8380474,6.5084864 8.4867117,6.4383631 8.0917829,6.5542647 7.6896278,6.4204884 7.6063616,6.3927901 7.5445817,6.2819856 7.4683966,6.2439713 c -0.026342,-0.013143 -0.067356,0.020781 -0.088179,0 -0.091403,-0.091215 0.139502,0.00374 -0.044351,-0.087998 -0.060936,-0.030404 -0.039341,0.053217 -0.088179,-0.044259 -0.035856,-0.071566 -0.041647,-0.1749072 -0.1325301,-0.2202559 -0.026673,-0.013309 -0.1121091,0.020379 -0.13253,0 -0.010413,-0.010392 0.010413,-0.033868 -1e-7,-0.04426 C 6.9449774,5.8096214 6.8012221,5.8264714 6.761918,5.8029394 6.708346,5.7708614 6.679369,5.7080894 6.6293879,5.6706818 c -0.01178,-0.00882 -0.033938,0.010391 -0.044351,0 C 6.2736088,5.3598815 6.2756261,4.6688395 6.2756261,4.2601063 V 3.2900432 c 0,-0.095808 -0.025213,-0.2961296 0,-0.3967731 0.032326,-0.1290386 0.07228,-0.2656722 0.088701,-0.396773 0.036325,-0.2900012 0.004,-0.7443186 -0.012001,-1.195526 z" /><rect
       style="fill:#0000ff;fill-opacity:1;stroke-width:0.621558"
       id="rect4"
       width="12.907067"
       height="6.2566457"
       x="6.3441515"
       y="18.81369" /><rect
       style="fill:#0000ff;fill-opacity:1;stroke-width:0.428188"
       id="rect5"
       width="6.1253877"
       height="6.2566457"
       x="6.5191627"
       y="13.038324" /><rect
       style="fill:#ff0000;fill-opacity:1;stroke-width:0.264583"
       id="rect6"
       width="6.3879042"
       height="6.2128935"
       x="18.901196"
       y="12.819561" /><rect
       style="fill:#0000ff;fill-opacity:1;stroke-width:0.264583"
       id="rect7"
       width="6.1253877"
       height="6.47541"
       x="0.56878597"
       y="6.47541" /><path
       id="rect1"
       style="fill:#ffff00;fill-opacity:1;stroke-width:0.148819"
       d="M 0,0 V 38.235101 H 44.491756 V 0 Z M 3.4759182,0.6951837 A 2.7807347,2.7807347 0 0 1 6.2566529,3.4759183 2.7807347,2.7807347 0 0 1 3.4759182,6.2566532 2.7807347,2.7807347 0 0 1 0.69518368,3.4759183 2.7807347,2.7807347 0 0 1 3.4759182,0.6951837 Z m 6.2566526,0 A 2.7807347,2.7807347 0 0 1 12.513306,3.4759183 2.7807347,2.7807347 0 0 1 9.7325708,6.2566532 2.7807347,2.7807347 0 0 1 6.9518367,3.4759183 2.7807347,2.7807347 0 0 1 9.7325708,0.6951837 Z m 6.2566532,0 A 2.7807347,2.7807347 0 0 1 18.769959,3.4759183 2.7807347,2.7807347 0 0 1 15.989224,6.2566532 2.7807347,2.7807347 0 0 1 13.20849,3.4759183 2.7807347,2.7807347 0 0 1 15.989224,0.6951837 Z m 6.256653,0 a 2.7807347,2.7807347 0 0 1 2.780736,2.7807346 2.7807347,2.7807347 0 0 1 -2.780736,2.7807349 2.7807347,2.7807347 0 0 1 -2.780735,-2.7807349 2.7807347,2.7807347 0 0 1 2.780735,-2.7807346 z m 6.256654,0 a 2.7807347,2.7807347 0 0 1 2.780734,2.7807346 2.7807347,2.7807347 0 0 1 -2.780734,2.7807349 2.7807347,2.7807347 0 0 1 -2.780734,-2.7807349 2.7807347,2.7807347 0 0 1 2.780734,-2.7807346 z m 6.256653,0 A 2.7807347,2.7807347 0 0 1 37.539918,3.4759183 2.7807347,2.7807347 0 0 1 34.759184,6.2566532 2.7807347,2.7807347 0 0 1 31.97845,3.4759183 2.7807347,2.7807347 0 0 1 34.759184,0.6951837 Z m 6.256652,0 A 2.7807347,2.7807347 0 0 1 43.796573,3.4759183 2.7807347,2.7807347 0 0 1 41.015836,6.2566532 2.7807347,2.7807347 0 0 1 38.235102,3.4759183 2.7807347,2.7807347 0 0 1 41.015836,0.6951837 Z M 3.4759182,6.9518367 A 2.7807347,2.7807347 0 0 1 6.2566529,9.7325717 2.7807347,2.7807347 0 0 1 3.4759182,12.513307 2.7807347,2.7807347 0 0 1 0.69518368,9.7325717 2.7807347,2.7807347 0 0 1 3.4759182,6.9518367 Z m 6.2566526,0 A 2.7807347,2.7807347 0 0 1 12.513306,9.7325717 2.7807347,2.7807347 0 0 1 9.7325708,12.513307 2.7807347,2.7807347 0 0 1 6.9518367,9.7325717 2.7807347,2.7807347 0 0 1 9.7325708,6.9518367 Z m 6.2566532,0 a 2.7807347,2.7807347 0 0 1 2.780735,2.780735 2.7807347,2.7807347 0 0 1 -2.780735,2.7807353 2.7807347,2.7807347 0 0 1 -2.780734,-2.7807353 2.7807347,2.7807347 0 0 1 2.780734,-2.780735 z m 6.256653,0 a 2.7807347,2.7807347 0 0 1 2.780736,2.780735 2.7807347,2.7807347 0 0 1 -2.780736,2.7807353 2.7807347,2.7807347 0 0 1 -2.780735,-2.7807353 2.7807347,2.7807347 0 0 1 2.780735,-2.780735 z m 6.256654,0 a 2.7807347,2.7807347 0 0 1 2.780734,2.780735 2.7807347,2.7807347 0 0 1 -2.780734,2.7807353 2.7807347,2.7807347 0 0 1 -2.780734,-2.7807353 2.7807347,2.7807347 0 0 1 2.780734,-2.780735 z m 6.256653,0 a 2.7807347,2.7807347 0 0 1 2.780734,2.780735 2.7807347,2.7807347 0 0 1 -2.780734,2.7807353 2.7807347,2.7807347 0 0 1 -2.780734,-2.7807353 2.7807347,2.7807347 0 0 1 2.780734,-2.780735 z m 6.256652,0 a 2.7807347,2.7807347 0 0 1 2.780737,2.780735 2.7807347,2.7807347 0 0 1 -2.780737,2.7807353 2.7807347,2.7807347 0 0 1 -2.780734,-2.7807353 2.7807347,2.7807347 0 0 1 2.780734,-2.780735 z M 3.4759182,13.20849 A 2.7807347,2.7807347 0 0 1 6.2566529,15.989225 2.7807347,2.7807347 0 0 1 3.4759182,18.769959 2.7807347,2.7807347 0 0 1 0.69518368,15.989225 2.7807347,2.7807347 0 0 1 3.4759182,13.20849 Z m 6.2566526,0 A 2.7807347,2.7807347 0 0 1 12.513306,15.989225 2.7807347,2.7807347 0 0 1 9.7325708,18.769959 2.7807347,2.7807347 0 0 1 6.9518367,15.989225 2.7807347,2.7807347 0 0 1 9.7325708,13.20849 Z m 6.2566532,0 a 2.7807347,2.7807347 0 0 1 2.780735,2.780735 2.7807347,2.7807347 0 0 1 -2.780735,2.780734 2.7807347,2.7807347 0 0 1 -2.780734,-2.780734 2.7807347,2.7807347 0 0 1 2.780734,-2.780735 z m 6.256653,0 a 2.7807347,2.7807347 0 0 1 2.780736,2.780735 2.7807347,2.7807347 0 0 1 -2.780736,2.780734 2.7807347,2.7807347 0 0 1 -2.780735,-2.780734 2.7807347,2.7807347 0 0 1 2.780735,-2.780735 z m 6.256654,0 a 2.7807347,2.7807347 0 0 1 2.780734,2.780735 2.7807347,2.7807347 0 0 1 -2.780734,2.780734 2.7807347,2.7807347 0 0 1 -2.780734,-2.780734 2.7807347,2.7807347 0 0 1 2.780734,-2.780735 z m 6.256653,0 a 2.7807347,2.7807347 0 0 1 2.780734,2.780735 2.7807347,2.7807347 0 0 1 -2.780734,2.780734 2.7807347,2.7807347 0 0 1 -2.780734,-2.780734 2.7807347,2.7807347 0 0 1 2.780734,-2.780735 z m 6.256652,0 a 2.7807347,2.7807347 0 0 1 2.780737,2.780735 2.7807347,2.7807347 0 0 1 -2.780737,2.780734 2.7807347,2.7807347 0 0 1 -2.780734,-2.780734 2.7807347,2.7807347 0 0 1 2.780734,-2.780735 z M 3.4759182,19.465142 A 2.7807347,2.7807347 0 0 1 6.2566529,22.245877 2.7807347,2.7807347 0 0 1 3.4759182,25.026613 2.7807347,2.7807347 0 0 1 0.69518368,22.245877 2.7807347,2.7807347 0 0 1 3.4759182,19.465142 Z m 6.2566526,0 a 2.7807347,2.7807347 0 0 1 2.7807352,2.780735 2.7807347,2.7807347 0 0 1 -2.7807352,2.780736 2.7807347,2.7807347 0 0 1 -2.7807341,-2.780736 2.7807347,2.7807347 0 0 1 2.7807341,-2.780735 z m 6.2566532,0 a 2.7807347,2.7807347 0 0 1 2.780735,2.780735 2.7807347,2.7807347 0 0 1 -2.780735,2.780736 2.7807347,2.7807347 0 0 1 -2.780734,-2.780736 2.7807347,2.7807347 0 0 1 2.780734,-2.780735 z m 6.256653,0 a 2.7807347,2.7807347 0 0 1 2.780736,2.780735 2.7807347,2.7807347 0 0 1 -2.780736,2.780736 2.7807347,2.7807347 0 0 1 -2.780735,-2.780736 2.7807347,2.7807347 0 0 1 2.780735,-2.780735 z m 6.256654,0 a 2.7807347,2.7807347 0 0 1 2.780734,2.780735 2.7807347,2.7807347 0 0 1 -2.780734,2.780736 2.7807347,2.7807347 0 0 1 -2.780734,-2.780736 2.7807347,2.7807347 0 0 1 2.780734,-2.780735 z m 6.256653,0 a 2.7807347,2.7807347 0 0 1 2.780734,2.780735 2.7807347,2.7807347 0 0 1 -2.780734,2.780736 2.7807347,2.7807347 0 0 1 -2.780734,-2.780736 2.7807347,2.7807347 0 0 1 2.780734,-2.780735 z m 6.256652,0 a 2.7807347,2.7807347 0 0 1 2.780737,2.780735 2.7807347,2.7807347 0 0 1 -2.780737,2.780736 2.7807347,2.7807347 0 0 1 -2.780734,-2.780736 2.7807347,2.7807347 0 0 1 2.780734,-2.780735 z M 3.4759182,25.721797 A 2.7807347,2.7807347 0 0 1 6.2566529,28.502531 2.7807347,2.7807347 0 0 1 3.4759182,31.283266 2.7807347,2.7807347 0 0 1 0.69518368,28.502531 2.7807347,2.7807347 0 0 1 3.4759182,25.721797 Z m 6.2566526,0 a 2.7807347,2.7807347 0 0 1 2.7807352,2.780734 2.7807347,2.7807347 0 0 1 -2.7807352,2.780735 2.7807347,2.7807347 0 0 1 -2.7807341,-2.780735 2.7807347,2.7807347 0 0 1 2.7807341,-2.780734 z m 6.2566532,0 a 2.7807347,2.7807347 0 0 1 2.780735,2.780734 2.7807347,2.7807347 0 0 1 -2.780735,2.780735 2.7807347,2.7807347 0 0 1 -2.780734,-2.780735 2.7807347,2.7807347 0 0 1 2.780734,-2.780734 z m 6.256653,0 a 2.7807347,2.7807347 0 0 1 2.780736,2.780734 2.7807347,2.7807347 0 0 1 -2.780736,2.780735 2.7807347,2.7807347 0 0 1 -2.780735,-2.780735 2.7807347,2.7807347 0 0 1 2.780735,-2.780734 z m 6.256654,0 a 2.7807347,2.7807347 0 0 1 2.780734,2.780734 2.7807347,2.7807347 0 0 1 -2.780734,2.780735 2.7807347,2.7807347 0 0 1 -2.780734,-2.780735 2.7807347,2.7807347 0 0 1 2.780734,-2.780734 z m 6.256653,0 a 2.7807347,2.7807347 0 0 1 2.780734,2.780734 2.7807347,2.7807347 0 0 1 -2.780734,2.780735 2.7807347,2.7807347 0 0 1 -2.780734,-2.780735 2.7807347,2.7807347 0 0 1 2.780734,-2.780734 z m 6.256652,0 a 2.7807347,2.7807347 0 0 1 2.780737,2.780734 2.7807347,2.7807347 0 0 1 -2.780737,2.780735 2.7807347,2.7807347 0 0 1 -2.780734,-2.780735 2.7807347,2.7807347 0 0 1 2.780734,-2.780734 z M 3.4759182,31.97845 A 2.7807347,2.7807347 0 0 1 6.2566529,34.759184 2.7807347,2.7807347 0 0 1 3.4759182,37.539918 2.7807347,2.7807347 0 0 1 0.69518368,34.759184 2.7807347,2.7807347 0 0 1 3.4759182,31.97845 Z m 6.2566526,0 A 2.7807347,2.7807347 0 0 1 12.513306,34.759184 2.7807347,2.7807347 0 0 1 9.7325708,37.539918 2.7807347,2.7807347 0 0 1 6.9518367,34.759184 2.7807347,2.7807347 0 0 1 9.7325708,31.97845 Z m 6.2566532,0 a 2.7807347,2.7807347 0 0 1 2.780735,2.780734 2.7807347,2.7807347 0 0 1 -2.780735,2.780734 2.7807347,2.7807347 0 0 1 -2.780734,-2.780734 2.7807347,2.7807347 0 0 1 2.780734,-2.780734 z m 6.256653,0 a 2.7807347,2.7807347 0 0 1 2.780736,2.780734 2.7807347,2.7807347 0 0 1 -2.780736,2.780734 2.7807347,2.7807347 0 0 1 -2.780735,-2.780734 2.7807347,2.7807347 0 0 1 2.780735,-2.780734 z m 6.256654,0 a 2.7807347,2.7807347 0 0 1 2.780734,2.780734 2.7807347,2.7807347 0 0 1 -2.780734,2.780734 2.7807347,2.7807347 0 0 1 -2.780734,-2.780734 2.7807347,2.7807347 0 0 1 2.780734,-2.780734 z m 6.256653,0 a 2.7807347,2.7807347 0 0 1 2.780734,2.780734 2.7807347,2.7807347 0 0 1 -2.780734,2.780734 2.7807347,2.7807347 0 0 1 -2.780734,-2.780734 2.7807347,2.7807347 0 0 1 2.780734,-2.780734 z m 6.256652,0 a 2.7807347,2.7807347 0 0 1 2.780737,2.780734 2.7807347,2.7807347 0 0 1 -2.780737,2.780734 2.7807347,2.7807347 0 0 1 -2.780734,-2.780734 2.7807347,2.7807347 0 0 1 2.780734,-2.780734 z" /></g></svg>
