<?xml version="1.0" encoding="UTF-8" standalone="no"?>
<!-- Created with Inkscape (http://www.inkscape.org/) -->

<svg
   width="8in"
   height="6.875in"
   viewBox="0 0 203.2 174.625"
   version="1.1"
   id="svg1"
   xmlns="http://www.w3.org/2000/svg"
   xmlns:svg="http://www.w3.org/2000/svg">
  <defs
     id="defs1" />
  <g
     id="layer1">
    <path
       id="rect1"
       style="fill:#ffff00;fill-opacity:1;stroke-width:0.679676"
       d="M 0,0 V 174.625 H 203.2 V 0 Z m 15.875,3.175 a 12.7,12.7 0 0 1 12.7,12.7 12.7,12.7 0 0 1 -12.7,12.7 12.7,12.7 0 0 1 -12.7,-12.7 12.7,12.7 0 0 1 12.7,-12.7 z m 28.575,0 a 12.7,12.7 0 0 1 12.7,12.7 12.7,12.7 0 0 1 -12.7,12.7 12.7,12.7 0 0 1 -12.7,-12.7 12.7,12.7 0 0 1 12.7,-12.7 z m 28.575,0 a 12.7,12.7 0 0 1 12.7,12.7 12.7,12.7 0 0 1 -12.7,12.7 12.7,12.7 0 0 1 -12.7,-12.7 12.7,12.7 0 0 1 12.7,-12.7 z m 28.575,0 a 12.7,12.7 0 0 1 12.7,12.7 12.7,12.7 0 0 1 -12.7,12.7 12.7,12.7 0 0 1 -12.7,-12.7 12.7,12.7 0 0 1 12.7,-12.7 z m 28.575,0 a 12.7,12.7 0 0 1 12.7,12.7 12.7,12.7 0 0 1 -12.7,12.7 12.7,12.7 0 0 1 -12.7,-12.7 12.7,12.7 0 0 1 12.7,-12.7 z m 28.575,0 a 12.7,12.7 0 0 1 12.7,12.7 12.7,12.7 0 0 1 -12.7,12.7 12.7,12.7 0 0 1 -12.7,-12.7 12.7,12.7 0 0 1 12.7,-12.7 z m 28.575,0 a 12.7,12.7 0 0 1 12.7,12.7 12.7,12.7 0 0 1 -12.7,12.7 12.7,12.7 0 0 1 -12.7,-12.7 12.7,12.7 0 0 1 12.7,-12.7 z M 15.875,31.75 a 12.7,12.7 0 0 1 12.7,12.7 12.7,12.7 0 0 1 -12.7,12.7 12.7,12.7 0 0 1 -12.7,-12.7 12.7,12.7 0 0 1 12.7,-12.7 z m 28.575,0 a 12.7,12.7 0 0 1 12.7,12.7 12.7,12.7 0 0 1 -12.7,12.7 12.7,12.7 0 0 1 -12.7,-12.7 12.7,12.7 0 0 1 12.7,-12.7 z m 28.575,0 a 12.7,12.7 0 0 1 12.7,12.7 12.7,12.7 0 0 1 -12.7,12.7 12.7,12.7 0 0 1 -12.7,-12.7 12.7,12.7 0 0 1 12.7,-12.7 z m 28.575,0 a 12.7,12.7 0 0 1 12.7,12.7 12.7,12.7 0 0 1 -12.7,12.7 12.7,12.7 0 0 1 -12.7,-12.7 12.7,12.7 0 0 1 12.7,-12.7 z m 28.575,0 a 12.7,12.7 0 0 1 12.7,12.7 12.7,12.7 0 0 1 -12.7,12.7 12.7,12.7 0 0 1 -12.7,-12.7 12.7,12.7 0 0 1 12.7,-12.7 z m 28.575,0 a 12.7,12.7 0 0 1 12.7,12.7 12.7,12.7 0 0 1 -12.7,12.7 12.7,12.7 0 0 1 -12.7,-12.7 12.7,12.7 0 0 1 12.7,-12.7 z m 28.575,0 a 12.7,12.7 0 0 1 12.7,12.7 12.7,12.7 0 0 1 -12.7,12.7 12.7,12.7 0 0 1 -12.7,-12.7 12.7,12.7 0 0 1 12.7,-12.7 z M 15.875,60.325 a 12.7,12.7 0 0 1 12.7,12.7 12.7,12.7 0 0 1 -12.7,12.7 12.7,12.7 0 0 1 -12.7,-12.7 12.7,12.7 0 0 1 12.7,-12.7 z m 28.575,0 a 12.7,12.7 0 0 1 12.7,12.7 12.7,12.7 0 0 1 -12.7,12.7 12.7,12.7 0 0 1 -12.7,-12.7 12.7,12.7 0 0 1 12.7,-12.7 z m 28.575,0 a 12.7,12.7 0 0 1 12.7,12.7 12.7,12.7 0 0 1 -12.7,12.7 12.7,12.7 0 0 1 -12.7,-12.7 12.7,12.7 0 0 1 12.7,-12.7 z m 28.575,0 a 12.7,12.7 0 0 1 12.7,12.7 12.7,12.7 0 0 1 -12.7,12.7 12.7,12.7 0 0 1 -12.7,-12.7 12.7,12.7 0 0 1 12.7,-12.7 z m 28.575,0 a 12.7,12.7 0 0 1 12.7,12.7 12.7,12.7 0 0 1 -12.7,12.7 12.7,12.7 0 0 1 -12.7,-12.7 12.7,12.7 0 0 1 12.7,-12.7 z m 28.575,0 a 12.7,12.7 0 0 1 12.7,12.7 12.7,12.7 0 0 1 -12.7,12.7 12.7,12.7 0 0 1 -12.7,-12.7 12.7,12.7 0 0 1 12.7,-12.7 z m 28.575,0 a 12.7,12.7 0 0 1 12.7,12.7 12.7,12.7 0 0 1 -12.7,12.7 12.7,12.7 0 0 1 -12.7,-12.7 12.7,12.7 0 0 1 12.7,-12.7 z M 15.875,88.9 a 12.7,12.7 0 0 1 12.7,12.7 12.7,12.7 0 0 1 -12.7,12.7 12.7,12.7 0 0 1 -12.7,-12.7 12.7,12.7 0 0 1 12.7,-12.7 z m 28.575,0 a 12.7,12.7 0 0 1 12.7,12.7 12.7,12.7 0 0 1 -12.7,12.7 12.7,12.7 0 0 1 -12.7,-12.7 12.7,12.7 0 0 1 12.7,-12.7 z m 28.575,0 a 12.7,12.7 0 0 1 12.7,12.7 12.7,12.7 0 0 1 -12.7,12.7 12.7,12.7 0 0 1 -12.7,-12.7 12.7,12.7 0 0 1 12.7,-12.7 z m 28.575,0 a 12.7,12.7 0 0 1 12.7,12.7 12.7,12.7 0 0 1 -12.7,12.7 12.7,12.7 0 0 1 -12.7,-12.7 12.7,12.7 0 0 1 12.7,-12.7 z m 28.575,0 a 12.7,12.7 0 0 1 12.7,12.7 12.7,12.7 0 0 1 -12.7,12.7 12.7,12.7 0 0 1 -12.7,-12.7 12.7,12.7 0 0 1 12.7,-12.7 z m 28.575,0 a 12.7,12.7 0 0 1 12.7,12.7 12.7,12.7 0 0 1 -12.7,12.7 12.7,12.7 0 0 1 -12.7,-12.7 12.7,12.7 0 0 1 12.7,-12.7 z m 28.575,0 a 12.7,12.7 0 0 1 12.7,12.7 12.7,12.7 0 0 1 -12.7,12.7 12.7,12.7 0 0 1 -12.7,-12.7 12.7,12.7 0 0 1 12.7,-12.7 z m -171.45,28.575 a 12.7,12.7 0 0 1 12.7,12.7 12.7,12.7 0 0 1 -12.7,12.7 12.7,12.7 0 0 1 -12.7,-12.7 12.7,12.7 0 0 1 12.7,-12.7 z m 28.575,0 a 12.7,12.7 0 0 1 12.7,12.7 12.7,12.7 0 0 1 -12.7,12.7 12.7,12.7 0 0 1 -12.7,-12.7 12.7,12.7 0 0 1 12.7,-12.7 z m 28.575,0 a 12.7,12.7 0 0 1 12.7,12.7 12.7,12.7 0 0 1 -12.7,12.7 12.7,12.7 0 0 1 -12.7,-12.7 12.7,12.7 0 0 1 12.7,-12.7 z m 28.575,0 a 12.7,12.7 0 0 1 12.7,12.7 12.7,12.7 0 0 1 -12.7,12.7 12.7,12.7 0 0 1 -12.7,-12.7 12.7,12.7 0 0 1 12.7,-12.7 z m 28.575,0 a 12.7,12.7 0 0 1 12.7,12.7 12.7,12.7 0 0 1 -12.7,12.7 12.7,12.7 0 0 1 -12.7,-12.7 12.7,12.7 0 0 1 12.7,-12.7 z m 28.575,0 a 12.7,12.7 0 0 1 12.7,12.7 12.7,12.7 0 0 1 -12.7,12.7 12.7,12.7 0 0 1 -12.7,-12.7 12.7,12.7 0 0 1 12.7,-12.7 z m 28.575,0 a 12.7,12.7 0 0 1 12.7,12.7 12.7,12.7 0 0 1 -12.7,12.7 12.7,12.7 0 0 1 -12.7,-12.7 12.7,12.7 0 0 1 12.7,-12.7 z M 15.875,146.05 a 12.7,12.7 0 0 1 12.7,12.7 12.7,12.7 0 0 1 -12.7,12.7 12.7,12.7 0 0 1 -12.7,-12.7 12.7,12.7 0 0 1 12.7,-12.7 z m 28.575,0 a 12.7,12.7 0 0 1 12.7,12.7 12.7,12.7 0 0 1 -12.7,12.7 12.7,12.7 0 0 1 -12.7,-12.7 12.7,12.7 0 0 1 12.7,-12.7 z m 28.575,0 a 12.7,12.7 0 0 1 12.7,12.7 12.7,12.7 0 0 1 -12.7,12.7 12.7,12.7 0 0 1 -12.7,-12.7 12.7,12.7 0 0 1 12.7,-12.7 z m 28.575,0 a 12.7,12.7 0 0 1 12.7,12.7 12.7,12.7 0 0 1 -12.7,12.7 12.7,12.7 0 0 1 -12.7,-12.7 12.7,12.7 0 0 1 12.7,-12.7 z m 28.575,0 a 12.7,12.7 0 0 1 12.7,12.7 12.7,12.7 0 0 1 -12.7,12.7 12.7,12.7 0 0 1 -12.7,-12.7 12.7,12.7 0 0 1 12.7,-12.7 z m 28.575,0 a 12.7,12.7 0 0 1 12.7,12.7 12.7,12.7 0 0 1 -12.7,12.7 12.7,12.7 0 0 1 -12.7,-12.7 12.7,12.7 0 0 1 12.7,-12.7 z m 28.575,0 a 12.7,12.7 0 0 1 12.7,12.7 12.7,12.7 0 0 1 -12.7,12.7 12.7,12.7 0 0 1 -12.7,-12.7 12.7,12.7 0 0 1 12.7,-12.7 z" />
  </g>
</svg>
